<?xml version="1.0" encoding="UTF-8"?>
<svg version="1.1" xmlns="http://www.w3.org/2000/svg" viewBox="0 0 512 512">
<path d="M0 0 C21.44442822 18.14216221 36.3969809 42.74830863 41.08984375 70.65234375 C41.21484375 74.21484375 41.21484375 74.21484375 41.08984375 76.65234375 C41.8684375 76.66652344 42.64703125 76.68070312 43.44921875 76.6953125 C76.70773676 78.1130143 107.52568304 94.5636551 130.21484375 118.43359375 C155.82661981 146.47467106 165.35120454 180.58138702 164.26464844 217.94091797 C162.6454537 252.31940734 143.76066738 283.09515356 119.04638672 305.91015625 C94.07446447 328.14619782 61.55390107 337.81812216 28.61253357 337.79278564 C27.39091823 337.79575677 26.16930289 337.79872789 24.91066891 337.80178905 C21.54559499 337.808924 18.18057217 337.8116448 14.81549442 337.81238651 C11.17590516 337.81424894 7.5363267 337.8218021 3.89674377 337.82852173 C-4.04983155 337.84205703 -11.9964018 337.84812215 -19.94298673 337.85253239 C-24.91251751 337.85530276 -29.88204637 337.85954151 -34.85157585 337.86403656 C-48.63307987 337.87622257 -62.41458236 337.88652345 -76.19609165 337.88991165 C-77.07674726 337.89013122 -77.95740287 337.89035078 -78.86474502 337.890577 C-79.7474056 337.89079528 -80.63006619 337.89101356 -81.53947407 337.89123845 C-83.32782972 337.8916819 -85.11618537 337.89212847 -86.90454102 337.89257812 C-87.79161115 337.89279955 -88.67868129 337.89302098 -89.59263235 337.89324912 C-103.95562378 337.89719438 -118.31856439 337.91464309 -132.68153621 337.93793765 C-147.45684903 337.96170594 -162.23213641 337.97411598 -177.00746864 337.97527957 C-185.29154765 337.97619321 -193.5755604 337.98186692 -201.85962105 338.00009918 C-208.91533908 338.01557428 -215.97097037 338.02057724 -223.02670217 338.01236108 C-226.6197409 338.00848071 -230.21260534 338.00925452 -233.8056221 338.02341843 C-268.68292109 338.15282947 -296.94761764 332.08169648 -322.43359375 307.1875 C-341.80178489 286.79471172 -348.59602661 261.01089668 -348.24609375 233.65234375 C-347.40280524 207.83795815 -333.55564738 185.54089425 -315.28515625 168.08984375 C-309.12375058 162.63037037 -302.05003649 158.6792362 -294.91015625 154.65234375 C-295.14992188 152.90244141 -295.14992188 152.90244141 -295.39453125 151.1171875 C-298.5540975 125.61097272 -291.57758904 100.3993977 -276.03515625 79.96484375 C-260.64188911 60.35892214 -237.98666004 45.84087933 -212.91015625 42.65234375 C-202.48296783 41.64334403 -192.3316344 41.45553089 -181.91015625 42.65234375 C-181.43707031 41.70875 -180.96398437 40.76515625 -180.4765625 39.79296875 C-165.78596231 11.04066616 -143.20063684 -9.20022856 -112.91015625 -20.34765625 C-74.03906247 -32.74724965 -31.81413809 -26.00541868 0 0 Z M-135.91015625 18.65234375 C-136.66554687 19.2659375 -137.4209375 19.87953125 -138.19921875 20.51171875 C-150.93682041 31.10450089 -158.97708681 45.96385526 -165.22265625 61.08984375 C-166.99082731 64.82264931 -167.29481077 65.28053976 -170.91015625 66.65234375 C-174.99279193 66.9789546 -178.55663571 66.55748953 -182.515625 65.66015625 C-202.83139821 61.51377679 -222.38267061 65.95472873 -239.91015625 76.65234375 C-256.53942317 88.20272126 -268.75418627 105.20550192 -272.56640625 125.29296875 C-274.09836278 135.80776128 -274.04136198 145.42981952 -271.359375 155.77734375 C-270.24831315 160.41481932 -269.97433479 164.09505946 -272.421875 168.16796875 C-275.62773225 171.36879326 -278.90189933 172.73554573 -283.03515625 174.46484375 C-290.23147325 177.66693416 -296.1054208 181.25308614 -301.91015625 186.65234375 C-302.93109375 187.53792969 -302.93109375 187.53792969 -303.97265625 188.44140625 C-314.08135237 197.72087339 -320.15363655 209.63079438 -323.91015625 222.65234375 C-324.27753906 223.89177734 -324.27753906 223.89177734 -324.65234375 225.15625 C-329.29165991 243.93594763 -324.69334451 263.3736726 -315.10791016 279.75927734 C-304.61868113 296.33764707 -287.17360198 309.24180441 -267.91015625 313.65234375 C-253.45147342 316.27540701 -238.8890742 315.93523806 -224.24902344 315.91113281 C-221.47126443 315.91274817 -218.693512 315.91733885 -215.91575623 315.92175293 C-209.18682109 315.93059447 -202.45793086 315.92874813 -195.72899404 315.92292765 C-190.25233194 315.91838888 -184.77568231 315.91780778 -179.29901886 315.91997528 C-178.5159832 315.92028175 -177.73294755 315.92058821 -176.92618354 315.92090397 C-175.3348177 315.9215435 -173.74345187 315.92219193 -172.15208605 315.92284915 C-157.2670922 315.9285375 -142.38212308 315.92201889 -127.49713328 315.91124842 C-114.76646839 315.9023213 -102.03584001 315.90386094 -89.30517578 315.91308594 C-74.47530876 315.92382725 -59.64546338 315.92798096 -44.815593 315.92186141 C-43.22924757 315.92122441 -41.64290214 315.92059566 -40.0565567 315.91997528 C-39.27631932 315.91966673 -38.49608194 315.91935818 -37.692201 315.91904028 C-32.23364572 315.91732435 -26.77510434 315.92020459 -21.31655121 315.92493439 C-14.6475441 315.93058665 -7.97858398 315.92893692 -1.30958214 315.9183729 C2.0833474 315.91317281 5.47613555 315.91206618 8.86907387 315.9176712 C48.38450014 315.97688473 80.64358913 311.00799635 110.08984375 282.65234375 C110.80914062 282.0078125 111.5284375 281.36328125 112.26953125 280.69921875 C126.8841365 267.19978418 135.42982749 247.61495125 140.08984375 228.65234375 C140.46109375 227.14607422 140.46109375 227.14607422 140.83984375 225.609375 C146.16844005 199.37343903 139.41685568 170.99215875 125.08984375 148.65234375 C108.10642563 123.95037641 83.3687317 106.12801625 53.74682617 100.29589844 C46.29042793 98.93543279 38.93791771 98.23667279 31.359375 97.9609375 C27.94806358 97.63896187 25.22606455 97.03338944 22.08984375 95.65234375 C20.54673508 91.79457207 20.15882499 88.28739784 19.7109375 84.1640625 C16.92780755 58.81501403 6.88142123 35.52054731 -12.91015625 18.65234375 C-48.76064995 -9.97352575 -100.59043993 -12.82557886 -135.91015625 18.65234375 Z " fill="#000000" transform="translate(347.91015625,100.34765625)"/>
<path d="M0 0 C10.10354791 8.29879202 16.68143229 20.11436072 18.37109375 33.1015625 C19.65634153 49.25896321 15.67700287 62.74190548 5.37109375 75.2890625 C-4.7548905 85.97665596 -18.07390715 91.06161735 -32.62890625 91.4765625 C-47.60354535 91.08119249 -59.57215035 85.73388704 -70.40625 75.44921875 C-80.80729468 64.46322956 -84.17004156 51.13657588 -83.91015625 36.31640625 C-83.25456475 21.89011521 -75.77765728 9.86765571 -65.62890625 0.1015625 C-46.4841774 -15.80695773 -19.46541783 -14.05675047 0 0 Z M-53.90625 20.03515625 C-59.04712103 26.20187003 -62.05223082 33.71278283 -61.90234375 41.76171875 C-60.91149246 50.24057481 -57.13876782 57.60185186 -50.62890625 63.1015625 C-43.38111919 68.06122566 -35.74389992 69.98300303 -27.02734375 68.7265625 C-18.94862357 66.72564109 -12.34456556 62.07577282 -7.69140625 55.1640625 C-3.52148101 47.63222522 -2.84389667 40.53338406 -4.62890625 32.1015625 C-7.34970106 24.0564537 -12.08621765 18.19861118 -19.5234375 14.04296875 C-31.57791182 8.55411225 -44.33935296 10.93972847 -53.90625 20.03515625 Z " fill="#000000" transform="translate(303.62890625,237.8984375)"/>
<path d="M0 0 C13.70220991 -0.67187656 26.85217827 3.72372887 37.1796875 12.703125 C38.33838966 13.83448316 39.42801378 15.03571472 40.50390625 16.24609375 C41.08140625 16.67921875 41.65890625 17.11234375 42.25390625 17.55859375 C44.40347469 20.46051115 44.60337179 23.74490661 44.50390625 27.24609375 C43.2455755 31.16912491 42.15647479 32.77563736 38.81640625 35.18359375 C34.66615405 36.51480672 31.55541584 36.80216027 27.50390625 35.24609375 C24.82895577 33.3606106 22.37163217 31.3115461 19.8828125 29.1875 C14.12567969 24.48915023 7.45747245 22.8773817 0.08984375 23.42578125 C-8.32013147 24.70159792 -14.6632759 28.58482034 -19.93359375 35.24609375 C-25.03349099 42.22031219 -25.29727933 49.90374889 -24.49609375 58.24609375 C-22.60037237 65.40890463 -18.40889846 71.67310803 -12.203125 75.75390625 C-4.52467632 79.92050631 2.65343882 81.31055036 11.17578125 79.10546875 C16.98198712 76.9622384 22.18025515 73.58230129 26.69140625 69.37109375 C29.50390625 67.24609375 29.50390625 67.24609375 33.06640625 66.74609375 C37.83765702 67.44009386 40.2941327 68.7443059 43.31640625 72.49609375 C44.89892873 76.16088266 45.10961316 78.27534844 44.50390625 82.24609375 C39.33852313 92.51609078 28.85688801 97.47934438 18.58203125 101.30078125 C5.43550787 105.33816533 -8.96300954 103.81744631 -21.18359375 97.62109375 C-33.94733175 90.05946149 -42.51939121 79.51946085 -46.77734375 65.27734375 C-50.06747736 51.40156289 -48.17322795 37.84079397 -41.49609375 25.24609375 C-33.68093309 13.02775721 -21.56078773 4.03636336 -7.30859375 0.80859375 C-4.87554485 0.45763532 -2.44600396 0.24115532 0 0 Z " fill="#000000" transform="translate(172.49609375,227.75390625)"/>
<path d="M0 0 C4.65021874 3.50096559 7.49120153 8.34860458 9.3125 13.8125 C10.52409986 27.78051557 7.35206158 37.9452675 -1.6875 48.8125 C-2.693479 50.14132807 -3.6950328 51.47355017 -4.6875 52.8125 C-3.49253906 52.85117187 -3.49253906 52.85117187 -2.2734375 52.890625 C9.22124135 53.50591195 9.22124135 53.50591195 13.3125 57.8125 C15.25978682 62.24658169 15.72650252 65.57049244 14.1875 70.1875 C12.33312847 72.78362015 10.99990987 74.14689471 8.3125 75.8125 C5.93569946 76.20690918 5.93569946 76.20690918 3.27197266 76.23242188 C1.76988754 76.25628967 1.76988754 76.25628967 0.23745728 76.28063965 C-0.838638 76.28084106 -1.91473328 76.28104248 -3.0234375 76.28125 C-4.13554596 76.28886353 -5.24765442 76.29647705 -6.39346313 76.30432129 C-8.74535884 76.31512389 -11.09730253 76.31797476 -13.44921875 76.31347656 C-17.04248403 76.31250541 -20.63360617 76.35410434 -24.2265625 76.3984375 C-26.51301639 76.40364541 -28.79947769 76.40633268 -31.0859375 76.40625 C-32.69400772 76.4308429 -32.69400772 76.4308429 -34.33456421 76.45593262 C-42.66197512 76.37903425 -42.66197512 76.37903425 -46.35351562 73.41577148 C-49.32308727 70.10358085 -49.74205478 68.31544564 -49.8984375 64.0078125 C-49.54918161 60.37296418 -48.27741809 58.23976623 -45.6875 55.8125 C-43.05091851 53.77632816 -40.35305796 51.85322347 -37.625 49.94140625 C-29.13525731 43.78860071 -17.60224931 34.84152271 -13.6875 24.8125 C-13.6097654 22.48046188 -13.59782272 20.14410941 -13.6875 17.8125 C-21.26326821 18.34413286 -25.37146954 20.60181303 -31.6875 24.8125 C-36.98645331 25.23983494 -40.42144141 25.32572472 -44.6875 21.8125 C-47.03046837 18.80011209 -46.95411591 15.65036127 -47.05078125 11.91015625 C-46.35810491 7.91050902 -44.44385606 5.42916301 -41.33984375 2.8984375 C-27.9240928 -5.55638108 -14.05992517 -8.94997387 0 0 Z " fill="#000000" transform="translate(374.6875,284.1875)"/>
<path d="M0 0 C19.36680088 7.52108772 32.59391924 21.96571295 41.18359375 40.5625 C45.21622532 50.0162883 48.99179986 63.09932464 45.1953125 73.125 C43.51732735 75.53204077 41.62018683 76.80598133 38.83984375 77.67578125 C35.09431048 78.29482598 32.66108605 78.27305728 29.125 76.8125 C24.21783525 72.62697713 23.49021831 68.87987744 22.75 62.625 C20.94454817 49.97660072 15.89428941 38.32624563 5.71875 30.171875 C-3.73359212 23.22848789 -12.78671175 19.93893249 -24.3828125 18.61328125 C-25.53523438 18.47277344 -26.68765625 18.33226562 -27.875 18.1875 C-29.47988281 18.02314453 -29.47988281 18.02314453 -31.1171875 17.85546875 C-34.8310448 16.75338914 -35.95093173 15.22883485 -38 12 C-39.10685711 7.94152394 -39.25544544 5.7379535 -37.875 1.75 C-30.12234931 -9.62055434 -10.8931525 -3.60104215 0 0 Z " fill="#000000" transform="translate(301,121)"/>
</svg>
