<?xml version="1.0" encoding="UTF-8"?>
<svg version="1.1" xmlns="http://www.w3.org/2000/svg" viewBox="0 0 512 512">
<path d="M0 0 C2.52040664 0.01611263 5.03921081 0.00001365 7.55957031 -0.01904297 C22.29537801 -0.03834296 36.84958368 1.7207829 51.08300781 5.64111328 C52.24086792 5.95471802 52.24086792 5.95471802 53.42211914 6.2746582 C84.884215 15.11268473 112.01506648 31.99378562 135.52050781 54.39111328 C136.29910156 55.11685547 137.07769531 55.84259766 137.87988281 56.59033203 C169.20304662 86.63613278 189.61032805 132.51952115 190.88076782 175.84466553 C190.93214327 179.18731393 190.93689712 182.52768908 190.91162109 185.87060547 C190.89550846 188.39101211 190.91160745 190.90981628 190.93066406 193.43017578 C190.95097199 208.58310385 189.04078554 223.4622099 184.95800781 238.07861328 C184.58554932 239.42246094 184.58554932 239.42246094 184.20556641 240.79345703 C175.01349926 272.42771308 157.90797819 298.5789857 135.52050781 322.39111328 C134.93785156 323.02791016 134.35519531 323.66470703 133.75488281 324.32080078 C125.80008385 332.71753301 116.02559952 339.52509157 106.45800781 345.95361328 C105.83925781 346.37102783 105.22050781 346.78844238 104.58300781 347.21850586 C101.31979732 349.36913652 98.16267288 351.00220127 94.52050781 352.39111328 C94.53161087 353.39256378 94.54271393 354.39401428 94.55415344 355.42581177 C94.65558887 364.87160627 94.73050165 374.31729001 94.77956867 383.76350594 C94.80564295 388.61974951 94.84100129 393.47555279 94.89770508 398.33154297 C94.95210238 403.01944164 94.98194467 407.7069173 94.99489403 412.39510727 C95.00412008 414.18209364 95.02213681 415.96905731 95.0491581 417.75586319 C95.08555226 420.2625524 95.09044902 422.7675024 95.08813477 425.27441406 C95.10611115 426.01025223 95.12408752 426.74609039 95.14260864 427.50422668 C95.08562482 433.22302267 93.43507011 435.52842775 89.52050781 439.39111328 C86.85872561 440.72200438 84.83311385 440.50380321 81.85644531 440.48876953 C80.73496094 440.48554688 79.61347656 440.48232422 78.45800781 440.47900391 C76.69457031 440.46643555 76.69457031 440.46643555 74.89550781 440.45361328 C73.71214844 440.44910156 72.52878906 440.44458984 71.30957031 440.43994141 C68.37983275 440.42812795 65.45019509 440.41165586 62.52050781 440.39111328 C62.5371624 441.44227829 62.5371624 441.44227829 62.55415344 442.51467896 C62.65454592 449.13495094 62.73056847 455.75500899 62.77956867 462.37587166 C62.80560805 465.77939584 62.84089873 469.18228847 62.89770508 472.58544922 C62.96267421 476.50236318 62.98673534 480.41902586 63.00878906 484.33642578 C63.0474987 486.16018234 63.0474987 486.16018234 63.08699036 488.02078247 C63.09011454 497.45757074 63.09011454 497.45757074 60.11499023 501.14453125 C56.87413218 503.95081485 55.45597885 504.51498986 51.29620361 504.54501343 C49.96723557 504.55791412 49.96723557 504.55791412 48.61141968 504.57107544 C47.63685822 504.57533539 46.66229675 504.57959534 45.65820312 504.58398438 C44.63367035 504.59216187 43.60913757 504.60033936 42.55355835 504.60876465 C39.15192251 504.63364374 35.75032847 504.65014129 32.34863281 504.66455078 C31.18850426 504.66987446 30.0283757 504.67519814 28.83309174 504.68068314 C22.69244548 504.70742585 16.55181963 504.72679705 10.41113281 504.74121094 C4.06442444 504.75785991 -2.28176478 504.80263726 -8.62827682 504.85358238 C-13.50446172 504.88721952 -18.38052288 504.89878458 -23.25681305 504.90443802 C-25.59640723 504.91116039 -27.935993 504.92640785 -30.27547455 504.95032883 C-33.55061779 504.98190553 -36.82435422 504.98202777 -40.09960938 504.97460938 C-41.06607391 504.99101471 -42.03253845 505.00742004 -43.02828979 505.02432251 C-47.47834557 504.98306603 -50.52380782 504.83670526 -54.06573486 501.97964478 C-57.44151536 498.3594324 -57.60367208 496.76878238 -57.59301758 491.93164062 C-57.59290428 490.22009293 -57.59290428 490.22009293 -57.5927887 488.47396851 C-57.58762741 487.23748566 -57.58246613 486.00100281 -57.57714844 484.72705078 C-57.57573349 483.46470612 -57.57431854 482.20236145 -57.57286072 480.90176392 C-57.56820296 477.54473029 -57.55921627 474.18776428 -57.54815674 470.83074951 C-57.53792989 467.40556422 -57.53336036 463.98037194 -57.52832031 460.55517578 C-57.51727457 453.83380285 -57.50052412 447.11246197 -57.47949219 440.39111328 C-58.56834717 440.4303894 -58.56834717 440.4303894 -59.67919922 440.47045898 C-62.9874076 440.57478138 -66.29526939 440.639552 -69.60449219 440.70361328 C-70.74660156 440.74550781 -71.88871094 440.78740234 -73.06542969 440.83056641 C-82.56955602 440.96870778 -82.56955602 440.96870778 -86.22167969 437.99658203 C-89.78768746 433.88148309 -89.61812588 430.96781648 -89.59301758 425.72851562 C-89.5931636 424.93818436 -89.59330963 424.14785309 -89.59346008 423.33357239 C-89.59276202 420.71470417 -89.58497458 418.09590661 -89.57714844 415.47705078 C-89.57528388 413.66386962 -89.57386016 411.85068795 -89.57286072 410.0375061 C-89.56903851 405.26007705 -89.55921073 400.48267829 -89.54815674 395.70526123 C-89.53793626 390.83232025 -89.53336173 385.95937439 -89.52832031 381.08642578 C-89.51758822 371.52130829 -89.50051533 361.9562133 -89.47949219 352.39111328 C-90.64158203 351.93865234 -90.64158203 351.93865234 -91.82714844 351.47705078 C-106.87611322 345.31561896 -119.86706529 332.48002913 -131.47949219 321.39111328 C-132.13433594 320.78912109 -132.78917969 320.18712891 -133.46386719 319.56689453 C-163.61368732 291.06813598 -184.19523815 245.12185275 -185.68286133 203.83666992 C-185.78691122 199.65376894 -185.80585273 195.47286589 -185.79516602 191.28881836 C-185.79201743 188.72417148 -185.81552159 186.16069593 -185.84082031 183.59619141 C-185.99463519 143.3838304 -171.42011434 103.79814895 -146.47949219 72.39111328 C-146.03492676 71.83085449 -145.59036133 71.2705957 -145.13232422 70.69335938 C-113.79763307 31.64234311 -69.70462053 7.21375495 -20.05456543 0.67071533 C-13.38780466 -0.0531631 -6.69864583 -0.05064893 0 0 Z M-54.85449219 35.51611328 C-55.78084473 35.85255859 -56.70719727 36.18900391 -57.66162109 36.53564453 C-63.11937473 38.60922083 -63.11937473 38.60922083 -67.47949219 42.39111328 C-66.82980469 43.43009766 -66.18011719 44.46908203 -65.51074219 45.53955078 C-57.38331319 58.94634912 -57.38331319 58.94634912 -57.96777344 66.37548828 C-58.90897937 70.08283377 -59.88519351 71.97075568 -63.04199219 74.20361328 C-67.36837451 75.69818172 -71.13001508 75.96448935 -75.47949219 74.39111328 C-79.70105142 70.8468447 -82.20515161 66.84487933 -84.79199219 62.07861328 C-85.15099609 61.4334375 -85.51 60.78826172 -85.87988281 60.12353516 C-86.75394694 58.55021973 -87.61780001 56.97123863 -88.47949219 55.39111328 C-97.28578209 55.39111328 -105.32269797 65.63275567 -111.47949219 71.39111328 C-112.30578125 72.16326172 -113.13207031 72.93541016 -113.98339844 73.73095703 C-118.74144325 78.3251881 -123.0757166 83.14073695 -127.16699219 88.32861328 C-127.61365234 88.88452148 -128.0603125 89.44042969 -128.52050781 90.01318359 C-129.89697779 91.75652859 -129.89697779 91.75652859 -131.47949219 94.39111328 C-130.31986691 97.86998912 -129.85906756 98.02055156 -126.76855469 99.66064453 C-126.01832031 100.07507813 -125.26808594 100.48951172 -124.49511719 100.91650391 C-122.91230473 101.76868807 -121.32638875 102.61513498 -119.73730469 103.45556641 C-114.99872727 106.0885602 -112.22371211 107.98759115 -110.47949219 113.39111328 C-110.08560866 117.81693186 -110.68505377 121.36603146 -113.41699219 124.89111328 C-117.04822097 127.53200694 -119.81454254 128.01084872 -124.26074219 128.02392578 C-131.30925245 126.63817498 -137.45839052 122.15616941 -143.47949219 118.39111328 C-147.3894139 121.88423431 -148.59973219 126.18464048 -150.35449219 131.01611328 C-150.70382813 131.97727051 -151.05316406 132.93842773 -151.41308594 133.92871094 C-156.07707499 147.32477173 -160.02482189 162.11029161 -159.47949219 176.39111328 C-158.47366089 176.40513184 -158.47366089 176.40513184 -157.44750977 176.41943359 C-154.39493652 176.47327924 -151.34387237 176.55689823 -148.29199219 176.64111328 C-147.23689453 176.65529297 -146.18179688 176.66947266 -145.09472656 176.68408203 C-137.23828208 176.9319194 -137.23828208 176.9319194 -133.30371094 179.31298828 C-130.01705611 183.05710042 -130.15158394 186.07111185 -130.18652344 190.90673828 C-130.59411345 194.36310163 -131.94225721 196.07775198 -134.47949219 198.39111328 C-136.99626332 199.64949885 -138.89242506 199.59930301 -141.70605469 199.70751953 C-143.25292969 199.77036133 -143.25292969 199.77036133 -144.83105469 199.83447266 C-145.91128906 199.87378906 -146.99152344 199.91310547 -148.10449219 199.95361328 C-149.19246094 199.99679688 -150.28042969 200.03998047 -151.40136719 200.08447266 C-154.09394388 200.19075858 -156.78661472 200.29279385 -159.47949219 200.39111328 C-160.06450684 215.71118439 -155.54460814 231.48611253 -150.35449219 245.76611328 C-150.01804687 246.69246582 -149.68160156 247.61881836 -149.33496094 248.57324219 C-147.26138464 254.03099583 -147.26138464 254.03099583 -143.47949219 258.39111328 C-142.44050781 257.74142578 -141.40152344 257.09173828 -140.33105469 256.42236328 C-126.92425635 248.29493428 -126.92425635 248.29493428 -119.49511719 248.87939453 C-115.7877717 249.82060046 -113.89984979 250.7968146 -111.66699219 253.95361328 C-110.17242375 258.27999561 -109.90611612 262.04163617 -111.47949219 266.39111328 C-115.02376077 270.61267251 -119.02572614 273.1167727 -123.79199219 275.70361328 C-124.43716797 276.06261719 -125.08234375 276.42162109 -125.74707031 276.79150391 C-127.32038574 277.66556803 -128.89936684 278.52942111 -130.47949219 279.39111328 C-130.47949219 288.19740318 -120.2378498 296.23431906 -114.47949219 302.39111328 C-113.70734375 303.21740234 -112.93519531 304.04369141 -112.13964844 304.89501953 C-83.41434115 334.64456792 -42.04824968 351.2905665 -0.97949219 352.35986328 C41.97795945 352.87476424 83.6964609 337.15979756 114.66503906 307.18798828 C115.60734375 306.26501953 116.54964844 305.34205078 117.52050781 304.39111328 C118.32875 303.63314453 119.13699219 302.87517578 119.96972656 302.09423828 C124.40295822 297.8544286 128.34692923 293.32232881 132.14550781 288.51611328 C132.59627686 287.95609619 133.0470459 287.3960791 133.51147461 286.8190918 C134.90554344 285.05725318 134.90554344 285.05725318 136.52050781 282.39111328 C135.36088253 278.91223745 134.90008318 278.761675 131.80957031 277.12158203 C130.68421875 276.49993164 130.68421875 276.49993164 129.53613281 275.86572266 C127.95332035 275.0135385 126.36740437 274.16709158 124.77832031 273.32666016 C120.03974289 270.69366637 117.26472774 268.79463541 115.52050781 263.39111328 C115.12662428 258.9652947 115.7260694 255.41619511 118.45800781 251.89111328 C122.0892366 249.25021962 124.85555817 248.77137784 129.30175781 248.75830078 C136.35026807 250.14405158 142.49940614 254.62605715 148.52050781 258.39111328 C152.43042953 254.89799226 153.64074782 250.59758608 155.39550781 245.76611328 C155.74484375 244.80495605 156.09417969 243.84379883 156.45410156 242.85351562 C161.11809061 229.45745483 165.06583752 214.67193496 164.52050781 200.39111328 C163.51467651 200.37709473 163.51467651 200.37709473 162.48852539 200.36279297 C159.43595214 200.30894732 156.38488799 200.22532833 153.33300781 200.14111328 C152.27791016 200.12693359 151.2228125 200.11275391 150.13574219 200.09814453 C142.27929771 199.85030717 142.27929771 199.85030717 138.34472656 197.46923828 C135.05807173 193.72512614 135.19259957 190.71111471 135.22753906 185.87548828 C135.63512908 182.41912494 136.98327283 180.70447459 139.52050781 178.39111328 C142.03727895 177.13272771 143.93344069 177.18292356 146.74707031 177.07470703 C148.29394531 177.01186523 148.29394531 177.01186523 149.87207031 176.94775391 C150.95230469 176.9084375 152.03253906 176.86912109 153.14550781 176.82861328 C154.77746094 176.76383789 154.77746094 176.76383789 156.44238281 176.69775391 C159.13495951 176.59146798 161.82763034 176.48943271 164.52050781 176.39111328 C165.10552246 161.07104217 160.58562376 145.29611403 155.39550781 131.01611328 C155.0590625 130.08976074 154.72261719 129.1634082 154.37597656 128.20898438 C152.30240027 122.75123073 152.30240027 122.75123073 148.52050781 118.39111328 C147.48152344 119.04080078 146.44253906 119.69048828 145.37207031 120.35986328 C131.96527197 128.48729228 131.96527197 128.48729228 124.53613281 127.90283203 C120.82878732 126.9616261 118.94086541 125.98541196 116.70800781 122.82861328 C115.21343937 118.50223096 114.94713174 114.74059039 116.52050781 110.39111328 C120.06477639 106.16955405 124.06674177 103.66545386 128.83300781 101.07861328 C129.47818359 100.71960938 130.12335938 100.36060547 130.78808594 99.99072266 C132.36140136 99.11665853 133.94038246 98.25280545 135.52050781 97.39111328 C135.52050781 88.58482338 125.27886542 80.5479075 119.52050781 74.39111328 C118.74835938 73.56482422 117.97621094 72.73853516 117.18066406 71.88720703 C112.586433 67.12916222 107.77088414 62.79488887 102.58300781 58.70361328 C102.02709961 58.25695312 101.47119141 57.81029297 100.8984375 57.35009766 C99.1550925 55.97362768 99.1550925 55.97362768 96.52050781 54.39111328 C93.04163198 55.55073856 92.89106954 56.01153791 91.25097656 59.10205078 C90.83654297 59.85228516 90.42210937 60.60251953 89.99511719 61.37548828 C89.14293303 62.95830074 88.29648611 64.54421672 87.45605469 66.13330078 C84.8230609 70.8718782 82.92402994 73.64689336 77.52050781 75.39111328 C73.09468923 75.78499681 69.54558964 75.1855517 66.02050781 72.45361328 C63.37961415 68.8223845 62.90077237 66.05606293 62.88769531 61.60986328 C64.27344612 54.56135302 68.75545168 48.41221495 72.52050781 42.39111328 C69.25013639 38.78828978 65.64083396 37.64179295 61.14550781 36.01611328 C60.31567383 35.71302246 59.48583984 35.40993164 58.63085938 35.09765625 C44.55929213 30.12458278 29.5092972 26.12815206 14.52050781 26.39111328 C14.50648926 27.39694458 14.50648926 27.39694458 14.4921875 28.4230957 C14.43834185 31.47566895 14.35472286 34.5267331 14.27050781 37.57861328 C14.25632812 38.63371094 14.24214844 39.68880859 14.22753906 40.77587891 C13.9797017 48.63232339 13.9797017 48.63232339 11.59863281 52.56689453 C7.85452067 55.85354936 4.84050924 55.71902153 0.00488281 55.68408203 C-3.45148053 55.27649201 -5.16613088 53.92834826 -7.47949219 51.39111328 C-8.73787775 48.87434215 -8.68768191 46.9781804 -8.79589844 44.16455078 C-8.85874023 42.61767578 -8.85874023 42.61767578 -8.92285156 41.03955078 C-8.96216797 39.95931641 -9.00148437 38.87908203 -9.04199219 37.76611328 C-9.08517578 36.67814453 -9.12835938 35.59017578 -9.17285156 34.46923828 C-9.27913748 31.77666158 -9.38117276 29.08399075 -9.47949219 26.39111328 C-24.79956329 25.80609863 -40.57449144 30.32599733 -54.85449219 35.51611328 Z M-65.47949219 364.39111328 C-65.47949219 381.55111328 -65.47949219 398.71111328 -65.47949219 416.39111328 C-20.59949219 416.39111328 24.28050781 416.39111328 70.52050781 416.39111328 C70.52050781 399.23111328 70.52050781 382.07111328 70.52050781 364.39111328 C62.73386269 366.51224516 62.73386269 366.51224516 54.95800781 368.67236328 C50.16770596 370.00445726 45.35350711 371.22405656 40.52050781 372.39111328 C39.82618652 372.5620752 39.13186523 372.73303711 38.41650391 372.90917969 C5.65877814 380.57520397 -30.15680903 375.46526255 -61.52197266 364.97021484 C-63.45890138 364.29655291 -63.45890138 364.29655291 -65.47949219 364.39111328 Z M-33.47949219 440.39111328 C-33.47949219 453.59111328 -33.47949219 466.79111328 -33.47949219 480.39111328 C-9.71949219 480.39111328 14.04050781 480.39111328 38.52050781 480.39111328 C38.52050781 467.19111328 38.52050781 453.99111328 38.52050781 440.39111328 C14.76050781 440.39111328 -8.99949219 440.39111328 -33.47949219 440.39111328 Z " fill="#000000" transform="translate(253.4794921875,3.60888671875)"/>
<path d="M0 0 C3.12578143 1.6720747 5.39281175 3.7856235 7 7 C7.34375 9.1015625 7.34375 9.1015625 7.5 11.625 C7.5721875 12.44226563 7.644375 13.25953125 7.71875 14.1015625 C5.65353177 22.42977949 -4.18692978 29.19835735 -10.24623299 35.04631042 C-13.12454819 37.83124267 -15.98165093 40.63783817 -18.84179688 43.44140625 C-22.46309109 46.99049706 -26.09060633 50.53223278 -29.74584961 54.04638672 C-32.71939145 56.90627102 -35.66791858 59.78990641 -38.60104179 62.69120789 C-39.71861682 63.78783156 -40.8450715 64.87548267 -41.98042488 65.95368958 C-48.18006121 71.26922882 -48.18006121 71.26922882 -51.22247314 78.3553772 C-50.68839091 80.77430703 -50.68839091 80.77430703 -49 84 C-47.65519576 94.69288886 -48.38836162 104.85718895 -54.98828125 113.6484375 C-61.01588914 120.74831415 -68.25730029 127.24584725 -77.94506836 128.18945312 C-80.09208587 128.26814095 -82.22674045 128.27293516 -84.375 128.25 C-85.09171875 128.25773438 -85.8084375 128.26546875 -86.546875 128.2734375 C-87.26101562 128.27085937 -87.97515625 128.26828125 -88.7109375 128.265625 C-89.65912354 128.26224121 -89.65912354 128.26224121 -90.62646484 128.25878906 C-93 128 -93 128 -94.83187866 127.35282898 C-96.95164093 126.63227769 -98.76154474 126.12861022 -101 126 C-103.62903702 127.70108207 -105.14286062 128.97810061 -107.1796875 131.23828125 C-107.7185257 131.79364059 -108.25736389 132.34899994 -108.81253052 132.92118835 C-110.52506336 134.69618435 -112.19977302 136.50232151 -113.875 138.3125 C-115.57899528 140.10366415 -117.28995448 141.88795987 -119.0017395 143.67167664 C-120.06309744 144.78306987 -121.11839391 145.90028953 -122.16696167 147.02375793 C-125.75644392 150.85795511 -127.52188974 152.16904414 -132.75 152.375 C-136.49103938 152.3533442 -138.6566975 152.02882688 -141.5625 149.625 C-144.57801763 146.37751947 -145.23203498 144.70263501 -145.5 140.375 C-145.60828125 139.14910156 -145.60828125 139.14910156 -145.71875 137.8984375 C-144.09992762 131.3703603 -137.83648516 126.79619709 -133.08984375 122.34375 C-132.24615234 121.54839844 -131.40246094 120.75304687 -130.53320312 119.93359375 C-128.78393628 118.29357382 -127.01778997 116.67139646 -125.23632812 115.06640625 C-120.76986023 111.19173399 -120.76986023 111.19173399 -118.87792969 105.91943359 C-119.38100354 103.90777555 -119.38100354 103.90777555 -120.21411133 101.96972656 C-122.93121866 95.1596545 -121.91679723 84.34588607 -119.5625 77.5625 C-114.97662651 68.06666303 -106.9569184 60.84282709 -97.28515625 56.890625 C-93.30111345 55.81052778 -89.7295161 55.70617954 -85.625 55.75 C-84.54992187 55.73839844 -84.54992187 55.73839844 -83.453125 55.7265625 C-82.73898437 55.72914063 -82.02484375 55.73171875 -81.2890625 55.734375 C-80.34087646 55.73775879 -80.34087646 55.73775879 -79.37353516 55.74121094 C-77 56 -77 56 -73.23345947 57.32801819 C-71.1093777 57.92706445 -71.1093777 57.92706445 -69 58 C-66.39049231 56.39305385 -64.91909326 55.19034267 -62.89111328 53.01049805 C-62.06024956 52.17941528 -62.06024956 52.17941528 -61.21260071 51.33154297 C-59.39058503 49.49747824 -57.60642217 47.63071194 -55.8203125 45.76171875 C-54.56085544 44.48106357 -53.29909071 43.20267411 -52.03512573 41.9264679 C-48.7157186 38.56324013 -45.42699333 35.17153412 -42.14422607 31.77258301 C-38.79522436 28.31435381 -35.42073266 24.88122188 -32.046875 21.44726562 C-28.25926674 17.59215638 -24.47410154 13.73512204 -20.71194458 9.85514832 C-20.14012955 9.26689774 -19.56831451 8.67864716 -18.97917175 8.0725708 C-17.90971143 6.9717843 -16.84228817 5.8690137 -15.77726746 4.76393127 C-10.83630968 -0.31426799 -6.9995378 -0.98615234 0 0 Z M-95 86 C-96.61429923 89.22859847 -96.59570657 92.50993653 -96 96 C-94.26397895 99.02508145 -92.16419863 101.41790069 -89 103 C-83.87629602 103.60728845 -83.87629602 103.60728845 -79.17578125 101.953125 C-75.37247256 98.82207185 -74.11336633 97.13366332 -73.625 92.25 C-73.64941225 88.89941932 -74.24398646 87.15105468 -76.375 84.5625 C-79.9048586 81.11668565 -81.9283652 80.60444164 -86.89453125 80.640625 C-90.61593453 81.27581814 -92.40312849 83.33979016 -95 86 Z " fill="#000000" transform="translate(341,100)"/>
</svg>
