<?xml version="1.0" encoding="UTF-8"?>
<svg version="1.1" xmlns="http://www.w3.org/2000/svg" viewBox="0 0 512 512">
<path d="M0 0 C0.74958908 -0.00205263 1.49917815 -0.00410527 2.27148205 -0.0062201 C4.7853919 -0.01187837 7.29924676 -0.0104343 9.81316185 -0.00901413 C11.63295027 -0.01159844 13.45273812 -0.01461178 15.27252519 -0.01801753 C20.2753002 -0.02608306 25.27806085 -0.02787685 30.28084159 -0.028615 C35.67570299 -0.03046633 41.07055695 -0.03801407 46.46541405 -0.04475021 C58.26300787 -0.05833088 70.0605983 -0.06435784 81.85819864 -0.06876087 C89.22506755 -0.07152374 96.59193515 -0.07576118 103.95880318 -0.08026505 C124.35664411 -0.09245736 144.75448399 -0.10275675 165.15232849 -0.10614014 C166.45778319 -0.1063597 167.7632379 -0.10657927 169.10825183 -0.10680549 C171.07111118 -0.10713291 171.07111118 -0.10713291 173.07362425 -0.10746694 C175.72527798 -0.1079104 178.37693171 -0.10835697 181.02858543 -0.10880661 C182.34389643 -0.10902804 183.65920742 -0.10924947 185.01437633 -0.10947761 C206.32604447 -0.11342544 227.63766852 -0.13087916 248.9493248 -0.15416613 C270.83113418 -0.17788305 292.71292641 -0.19034214 314.59474885 -0.19150805 C326.87998083 -0.19242462 339.16516825 -0.19817236 351.45038795 -0.21632767 C361.91176346 -0.23173322 372.37308064 -0.2368464 382.83446534 -0.22858956 C388.17058976 -0.22468471 393.50659673 -0.22560477 398.84270668 -0.23964691 C403.73198116 -0.25239537 408.62105005 -0.25117992 413.51032428 -0.2390562 C415.27481711 -0.23710085 417.03932454 -0.24017009 418.80379684 -0.24890056 C434.1120794 -0.3198217 446.43723689 0.97232019 458.20485497 11.69392776 C466.65153163 21.1059389 470.16428547 30.32540251 470.03932762 42.95174026 C470.04808922 44.06563126 470.05685081 45.17952225 470.06587791 46.32716751 C470.08769506 49.97066298 470.07338092 53.61292223 470.05641747 57.25642776 C470.05979064 59.81128037 470.06464743 62.3661314 470.07091331 64.92097855 C470.0782608 70.26017991 470.06813236 75.5989475 470.04421043 80.93806839 C470.01700654 87.07998204 470.02582371 93.22106534 470.05334246 99.36295891 C470.07890957 105.31105847 470.07602191 111.25890381 470.06143379 117.20705032 C470.05811557 119.72027581 470.06213058 122.23352273 470.07383156 124.74672318 C470.08663367 128.26874545 470.06703009 131.78920815 470.03932762 135.31111526 C470.04944878 136.33380508 470.05956993 137.3564949 470.06999779 138.41017532 C469.91669008 149.01403125 465.9321532 159.50949665 458.39235497 167.13142776 C448.75164993 175.1680491 439.2992328 178.29495174 426.78470993 178.26285553 C426.03512085 178.26490816 425.28553178 178.2669608 424.51322788 178.26907563 C421.99931803 178.2747339 419.48546317 178.27328983 416.97154808 178.27186966 C415.15175966 178.27445397 413.33197181 178.27746731 411.51218474 178.28087306 C406.50940973 178.28893859 401.50664908 178.29073238 396.50386834 178.29147053 C391.10900694 178.29332186 385.71415298 178.3008696 380.31929588 178.30760574 C368.52170206 178.32118641 356.72411163 178.32721337 344.92651129 178.3316164 C337.55964238 178.33437927 330.19277478 178.3386167 322.82590675 178.34312057 C302.42806582 178.35531289 282.03022594 178.36561228 261.63238144 178.36899567 C259.67419939 178.36932502 259.67419939 178.36932502 257.6764581 178.36966102 C256.3678852 178.3698793 255.0593123 178.37009757 253.71108568 178.37032247 C251.05943195 178.37076593 248.40777822 178.37121249 245.7561245 178.37166214 C244.4408135 178.37188357 243.12550251 178.372105 241.7703336 178.37233314 C220.45866546 178.37628096 199.14704141 178.39373469 177.83538513 178.41702166 C155.95357575 178.44073858 134.07178352 178.45319767 112.18996108 178.45436358 C99.9047291 178.45528015 87.61954168 178.46102789 75.33432198 178.4791832 C64.87294647 178.49458875 54.41162929 178.49970193 43.95024459 178.49144509 C38.61412017 178.48754024 33.2781132 178.4884603 27.94200325 178.50250244 C23.05272877 178.5152509 18.16365988 178.51403545 13.27438565 178.50191173 C11.50989283 178.49995638 9.74538539 178.50302562 7.98091309 178.51175609 C-7.32736947 178.58267723 -19.65252696 177.29053534 -31.42014503 166.56892776 C-39.8668217 157.15691663 -43.37957554 147.93745302 -43.25461769 135.31111526 C-43.26337929 134.19722427 -43.27214088 133.08333328 -43.28116798 131.93568802 C-43.30298513 128.29219255 -43.28867099 124.6499333 -43.27170753 121.00642776 C-43.27508071 118.45157516 -43.2799375 115.89672413 -43.28620338 113.34187698 C-43.29355087 108.00267562 -43.28342243 102.66390803 -43.2595005 97.32478714 C-43.23229661 91.18287349 -43.24111378 85.04179019 -43.26863253 78.89989662 C-43.29419964 72.95179706 -43.29131198 67.00395172 -43.27672386 61.05580521 C-43.27340564 58.54257972 -43.27742065 56.0293328 -43.28912163 53.51613235 C-43.30192374 49.99411008 -43.28232016 46.47364738 -43.25461769 42.95174026 C-43.26979942 41.41770554 -43.26979942 41.41770554 -43.28528786 39.85268021 C-43.13198015 29.24882428 -39.14744327 18.75335888 -31.60764503 11.13142776 C-21.96694 3.09480643 -12.51452287 -0.03209621 0 0 Z M-9.60764503 34.13142776 C-11.6737878 37.23064191 -11.85954524 37.89717998 -11.87507057 41.40678787 C-11.88360054 42.27875809 -11.89213051 43.1507283 -11.90091896 44.04912186 C-11.90001259 45.00295761 -11.89910622 45.95679337 -11.89817238 46.93953323 C-11.9048896 47.94631119 -11.91160683 48.95308914 -11.9185276 49.99037552 C-11.93756274 53.32650531 -11.94143461 56.66243451 -11.94358253 59.99861526 C-11.95000668 62.31405598 -11.95673475 64.62949586 -11.96375465 66.94493484 C-11.97574128 71.80220294 -11.97943406 76.65939983 -11.9782505 81.51668167 C-11.97804725 87.74346213 -12.00534999 93.96978648 -12.03979492 100.19645882 C-12.06202295 104.97997005 -12.0660893 109.76337081 -12.06503105 114.54692841 C-12.06739317 116.84266736 -12.07625084 119.13840908 -12.09169579 121.43409729 C-12.11127207 124.64456824 -12.10555005 127.8540466 -12.09348488 131.06453323 C-12.10472389 132.01432053 -12.11596291 132.96410782 -12.1275425 133.94267654 C-12.08721796 138.16121344 -11.97634441 140.51788129 -9.76478004 144.19810867 C-6.16084871 147.42811014 -3.06081027 147.25092619 1.59157372 147.22908401 C2.80006981 147.22586136 4.0085659 147.2226387 5.25368309 147.21931839 C6.51631981 147.21093948 7.77895653 147.20256058 9.07985497 147.19392776 C10.35409325 147.18941605 11.62833153 147.18490433 12.94118309 147.18025589 C16.0916206 147.1684565 19.24196445 147.15199374 22.39235497 147.13142776 C22.39822121 146.39750809 22.40408745 145.66358841 22.41013145 144.90742874 C22.46822853 137.96370387 22.54040179 131.02024972 22.62806988 124.07683945 C22.67264463 120.5078193 22.71192821 116.93890991 22.73879051 113.36970901 C22.76495348 109.92002915 22.80544507 106.47077848 22.85554123 103.02136612 C22.88014813 101.07625962 22.89022103 99.13098661 22.89999962 97.18574905 C23.01027562 90.49681215 23.37598219 85.15610934 26.39235497 79.13142776 C30.16127607 75.86502948 33.3897921 74.22951723 38.39235497 74.13142776 C43.11690966 75.06314623 46.49440923 76.21103338 49.89235497 79.69392776 C52.24671274 83.51975915 52.53476619 85.63006134 52.59767723 90.14168167 C52.62759506 92.03341614 52.62759506 92.03341614 52.65811729 93.96336746 C52.67510161 95.34490713 52.69198042 96.72644811 52.70876122 98.10799026 C52.72933057 99.51761359 52.75032704 100.92723074 52.77173424 102.33684158 C52.82695692 106.04889812 52.87636528 109.76101033 52.92458153 113.4731636 C52.98362199 117.92607598 53.04985102 122.37888648 53.11488152 126.83171463 C53.21289353 133.59822351 53.30174766 140.36479741 53.39235497 147.13142776 C66.26235497 147.13142776 79.13235497 147.13142776 92.39235497 147.13142776 C92.64127886 137.90303837 92.64127886 137.90303837 92.87038231 128.67415237 C92.92379784 126.93403885 92.92379784 126.93403885 92.97829247 125.15877151 C93.02542381 123.39134598 93.02542381 123.39134598 93.07350731 121.58821487 C93.70317805 114.76163908 95.11580599 110.61649439 100.39235497 106.13142776 C104.31234945 104.17143052 109.10867826 104.77807093 113.39235497 105.13142776 C116.678719 106.56921203 119.09477259 108.37432891 121.39235497 111.13142776 C122.57227912 114.67120024 122.62158223 117.95413271 122.70876122 121.64314651 C122.72741234 122.28884598 122.74606346 122.93454544 122.76527977 123.59981155 C122.8334487 126.00604777 122.89367953 128.41250359 122.95485497 130.81892776 C123.17141747 138.89361526 123.17141747 138.89361526 123.39235497 147.13142776 C136.59235497 147.13142776 149.79235497 147.13142776 163.39235497 147.13142776 C163.41813622 142.65322464 163.44391747 138.17502151 163.47047997 133.56111526 C163.50217459 129.98135168 163.5378257 126.40167594 163.57614708 122.82197952 C163.61546405 119.0481573 163.64787334 115.27457009 163.66335106 111.50056839 C163.67854004 107.86278981 163.71302377 104.22565088 163.76066399 100.58815765 C163.77545498 99.2032122 163.78339468 97.81817542 163.78423882 96.43315125 C163.80071349 82.95148268 163.80071349 82.95148268 168.39235497 78.13142776 C171.91923835 75.43985887 174.95603358 74.30205551 179.39235497 74.13142776 C184.41949168 75.03350979 187.57620457 76.15204729 190.89235497 80.13142776 C193.00621305 84.35914394 193.53015624 87.39337312 193.59767723 92.07161331 C193.61762245 93.29265259 193.63756767 94.51369186 193.65811729 95.77173233 C193.68318604 97.74995735 193.68318604 97.74995735 193.70876122 99.76814651 C193.72933756 101.13150021 193.75033422 102.49484762 193.77173424 103.85818863 C193.82688466 107.44364199 193.87632484 111.02915225 193.92458153 114.61470413 C193.97484795 118.27462688 194.03045507 121.93446819 194.08571434 125.59431839 C194.1937148 132.77329238 194.29279213 139.9523119 194.39235497 147.13142776 C207.26235497 147.13142776 220.13235497 147.13142776 233.39235497 147.13142776 C233.56259216 136.54160594 233.56259216 136.54160594 233.69020653 125.95125198 C233.71960137 124.61283861 233.75043163 123.27445566 233.78297997 121.93611526 C233.78410789 121.25428177 233.78523582 120.57244827 233.78639793 119.86995316 C233.93464524 114.86389479 235.30013294 112.02017499 238.39235497 108.13142776 C242.35247262 104.53132081 246.6075759 104.62513582 251.73219872 104.78377151 C255.54727547 105.28236451 257.61623714 106.49411583 260.39235497 109.13142776 C263.20266628 113.75853586 263.79651565 117.33946185 263.90407372 122.71736526 C263.93718651 124.00175491 263.9702993 125.28614456 264.00441551 126.60945511 C264.04175804 129.03345657 264.04175804 129.03345657 264.07985497 131.50642776 C264.18297997 136.66267776 264.28610497 141.81892776 264.39235497 147.13142776 C277.59235497 147.13142776 290.79235497 147.13142776 304.39235497 147.13142776 C304.42973778 142.72541214 304.46712059 138.31939651 304.50563622 133.77986526 C304.54376662 130.25746108 304.58483925 126.73511843 304.62789726 123.21277237 C304.67248252 119.49964343 304.71193303 115.78662537 304.73879051 112.0733223 C304.76487985 108.49398044 304.80532099 104.9150574 304.85554123 101.33597565 C304.87217211 99.97335537 304.88370989 98.61066271 304.88996887 97.24795532 C304.89965027 95.33318125 304.92944035 93.41854132 304.95998192 91.50398636 C304.97108498 90.41588669 304.98218803 89.32778702 304.99362755 88.20671463 C305.64363083 83.19339857 307.31260337 80.01922352 311.20485497 76.81892776 C316.23769866 74.1544811 319.57610793 73.69796912 325.01735497 75.25642776 C329.03134457 76.72957546 331.14864601 78.39191285 333.39235497 82.13142776 C334.4680559 85.35853056 334.54946657 87.76800187 334.59767723 91.16341019 C334.61762245 92.40447021 334.63756767 93.64553024 334.65811729 94.92419815 C334.67510024 96.27842967 334.69197909 97.63266249 334.70876122 98.98689651 C334.72933724 100.37267036 334.75033389 101.75843801 334.77173424 103.14419937 C334.82688798 106.78883729 334.8763267 110.43353122 334.92458153 114.07826614 C334.97484552 117.79851117 335.03045387 121.51867603 335.08571434 125.23884964 C335.19371926 132.5363142 335.29279404 139.83382352 335.39235497 147.13142776 C348.26235497 147.13142776 361.13235497 147.13142776 374.39235497 147.13142776 C374.60203537 136.87071956 374.60203537 136.87071956 374.78029442 126.60945511 C374.81340721 125.32506546 374.84652 124.04067581 374.88063622 122.71736526 C374.9068203 121.40816116 374.93300438 120.09895706 374.95998192 118.75008011 C375.57573449 113.59667261 377.13869388 110.3224058 380.89235497 106.75642776 C385.80160052 104.47713518 390.0670207 104.35481652 395.39235497 105.13142776 C400.48449136 107.49563395 402.28103649 110.02754484 404.39235497 115.13142776 C404.82472801 118.75008011 404.82472801 118.75008011 404.90407372 122.71736526 C404.93100052 123.77004089 404.93100052 123.77004089 404.9584713 124.8439827 C405.01224543 127.0647383 405.0463619 129.28528316 405.07985497 131.50642776 C405.11305734 133.02077981 405.14754968 134.53510415 405.18337059 136.04939651 C405.26795078 139.7432045 405.33491846 143.43708655 405.39235497 147.13142776 C409.62139116 147.21868436 413.85019508 147.27190667 418.07985497 147.31892776 C419.27803856 147.34406448 420.47622215 147.3692012 421.71071434 147.39509964 C422.86764793 147.40476761 424.02458153 147.41443558 425.21657372 147.42439651 C426.27964745 147.44010696 427.34272118 147.45581741 428.43800926 147.47200394 C431.84387827 147.07937628 433.65805067 146.16985743 436.39235497 144.13142776 C438.45849773 141.03221362 438.64425517 140.36567555 438.6597805 136.85606766 C438.66831047 135.98409744 438.67684044 135.11212723 438.68562889 134.21373367 C438.68472252 133.25989792 438.68381615 132.30606216 438.68288231 131.3233223 C438.68959953 130.31654434 438.69631676 129.30976639 438.70323753 128.27248001 C438.72227267 124.93635022 438.72614454 121.60042102 438.72829247 118.26424026 C438.73471661 115.94879955 438.74144468 113.63335967 438.74846458 111.31792068 C438.76045121 106.46065259 438.76414399 101.6034557 438.76296043 96.74617386 C438.76275718 90.5193934 438.79005992 84.29306904 438.82450485 78.06639671 C438.84673288 73.28288548 438.85079923 68.49948472 438.84974098 63.71592712 C438.8521031 61.42018817 438.86096077 59.12444645 438.87640572 56.82875824 C438.895982 53.61828729 438.89025998 50.40880892 438.87819481 47.1983223 C438.88943382 46.248535 438.90067284 45.29874771 438.91225243 44.32017899 C438.87192789 40.10164209 438.76105434 37.74497424 436.54948997 34.06474686 C432.77715609 30.68381563 429.02104847 30.98771176 424.22800446 31 C423.48990998 30.99794737 422.7518155 30.99589473 421.99135453 30.9937799 C419.49855016 30.98808993 417.0058007 30.9895696 414.51299095 30.99098587 C412.71555164 30.98840339 410.9181129 30.98539055 409.12067497 30.98198247 C404.16601703 30.97389564 399.21137357 30.97212197 394.25670981 30.971385 C388.91918977 30.96953739 383.58167729 30.9619916 378.24416161 30.95524979 C366.56669102 30.94165455 354.88922387 30.93564005 343.21174669 30.93123913 C335.92485067 30.92847902 328.63795599 30.92424213 321.35106087 30.91973495 C301.18837441 30.90754131 281.02568903 30.89724181 260.86299896 30.89385986 C259.57198363 30.8936403 258.2809683 30.89342073 256.95083129 30.89319451 C255.65667556 30.89297623 254.36251983 30.89275796 253.02914727 30.89253306 C250.40656416 30.89208959 247.78398104 30.89164303 245.16139793 30.89119339 C243.86049795 30.89097196 242.55959797 30.89075053 241.21927677 30.89052239 C220.12902007 30.88657241 199.03879789 30.8691127 177.94855453 30.84583387 C156.3120866 30.82214422 134.675636 30.80965912 113.03915489 30.80849195 C100.88432809 30.8075739 88.72954627 30.80178902 76.57473183 30.78367233 C66.22690244 30.7683036 55.87913192 30.76313179 45.53129329 30.77141044 C40.24871355 30.77532826 34.96625249 30.77433232 29.68368721 30.76035309 C24.85140453 30.74768198 20.01933053 30.74875153 15.18704842 30.7609438 C13.43537638 30.76291263 11.6836899 30.75976815 9.9320382 30.75109944 C7.55723189 30.74008736 5.18317255 30.74743718 2.80838776 30.75949097 C2.12288575 30.75189577 1.43738375 30.74430058 0.73110896 30.73647523 C-3.54565948 30.78357548 -6.21070637 31.51594132 -9.60764503 34.13142776 Z " fill="#000000" transform="translate(42.60764503479004,166.86857223510742)"/>
</svg>
