<?xml version="1.0" encoding="UTF-8"?>
<svg version="1.1" xmlns="http://www.w3.org/2000/svg" width="24" height="24">
<path d="M0 0 C0.98484375 -0.00128906 1.9696875 -0.00257813 2.984375 -0.00390625 C4.02078125 -0.00003906 5.0571875 0.00382813 6.125 0.0078125 C7.67960938 0.00201172 7.67960938 0.00201172 9.265625 -0.00390625 C10.25046875 -0.00261719 11.2353125 -0.00132812 12.25 0 C13.16007812 0.00112793 14.07015625 0.00225586 15.0078125 0.00341797 C17.125 0.1328125 17.125 0.1328125 18.125 1.1328125 C18.2578125 2.9453125 18.2578125 2.9453125 18.25 5.1328125 C18.25386719 6.215625 18.25386719 6.215625 18.2578125 7.3203125 C18.125 9.1328125 18.125 9.1328125 17.125 10.1328125 C15.50242456 10.2319782 13.87560169 10.26361027 12.25 10.265625 C11.26515625 10.26691406 10.2803125 10.26820312 9.265625 10.26953125 C8.22921875 10.26566406 7.1928125 10.26179688 6.125 10.2578125 C4.57039062 10.26361328 4.57039062 10.26361328 2.984375 10.26953125 C1.99953125 10.26824219 1.0146875 10.26695313 0 10.265625 C-0.91007813 10.26449707 -1.82015625 10.26336914 -2.7578125 10.26220703 C-4.875 10.1328125 -4.875 10.1328125 -5.875 9.1328125 C-6.0078125 7.3203125 -6.0078125 7.3203125 -6 5.1328125 C-6.00257813 4.4109375 -6.00515625 3.6890625 -6.0078125 2.9453125 C-5.73167084 -0.82320897 -3.19491631 0.00395971 0 0 Z M-3.875 3.1328125 C-3.545 4.4528125 -3.215 5.7728125 -2.875 7.1328125 C-2.875 6.1428125 -2.875 5.1528125 -2.875 4.1328125 C-2.215 4.1328125 -1.555 4.1328125 -0.875 4.1328125 C-0.545 5.1228125 -0.215 6.1128125 0.125 7.1328125 C0.125 6.4728125 0.125 5.8128125 0.125 5.1328125 C0.785 5.1328125 1.445 5.1328125 2.125 5.1328125 C2.455 5.7928125 2.785 6.4528125 3.125 7.1328125 C3.125 6.1428125 3.125 5.1528125 3.125 4.1328125 C6.59 5.6178125 6.59 5.6178125 10.125 7.1328125 C10.125 6.1428125 10.125 5.1528125 10.125 4.1328125 C10.785 4.1328125 11.445 4.1328125 12.125 4.1328125 C12.455 5.1228125 12.785 6.1128125 13.125 7.1328125 C14.115 7.1328125 15.105 7.1328125 16.125 7.1328125 C16.125 5.8128125 16.125 4.4928125 16.125 3.1328125 C9.525 3.1328125 2.925 3.1328125 -3.875 3.1328125 Z " fill="#000000" transform="translate(5.875,6.8671875)"/>
</svg>
